<svg width="38" height="31" viewBox="0 0 38 31" fill="none" xmlns="http://www.w3.org/2000/svg">
<path d="M18.9998 24.2187C14.4962 24.2187 10.8506 20.664 10.5152 16.1593L4.28673 11.2509C3.46795 12.2983 2.71449 13.4057 2.10649 14.6166C1.97067 14.8906 1.8999 15.1933 1.8999 15.5003C1.8999 15.8073 1.97067 16.11 2.10649 16.384C5.32639 22.7904 11.7009 27.1249 18.9998 27.1249C20.5976 27.1249 22.139 26.8827 23.6245 26.4916L20.5436 24.0606C20.0347 24.1609 19.518 24.2138 18.9998 24.2187ZM37.6328 27.7364L31.0689 22.5633C33.0628 20.8498 34.7027 18.7491 35.8931 16.3834C36.029 16.1094 36.0997 15.8067 36.0997 15.4997C36.0997 15.1927 36.029 14.89 35.8931 14.616C32.6732 8.20963 26.2988 3.87512 18.9998 3.87512C15.9429 3.8789 12.9356 4.66366 10.2527 6.15771L2.69905 0.2042C2.60055 0.126039 2.48791 0.0684372 2.36757 0.0346855C2.24723 0.000933794 2.12154 -0.00830605 1.9977 0.00749395C1.87386 0.023294 1.75428 0.0638241 1.6458 0.126768C1.53732 0.189713 1.44207 0.273837 1.36549 0.374335L0.199965 1.90434C0.0453518 2.10716 -0.0239292 2.3643 0.00735898 2.6192C0.0386472 2.8741 0.167942 3.1059 0.366808 3.2636L35.3006 30.7958C35.3991 30.874 35.5117 30.9316 35.6321 30.9653C35.7524 30.9991 35.8781 31.0083 36.0019 30.9925C36.1258 30.9767 36.2453 30.9362 36.3538 30.8732C36.4623 30.8103 36.5576 30.7262 36.6341 30.6257L37.8003 29.0957C37.9548 28.8928 38.024 28.6356 37.9926 28.3807C37.9612 28.1258 37.8318 27.894 37.6328 27.7364ZM26.7245 19.1388L24.391 17.2994C24.5876 16.7203 24.6918 16.1128 24.6998 15.5C24.7114 14.6029 24.5165 13.7155 24.1307 12.9091C23.745 12.1027 23.1791 11.3998 22.4787 10.8568C21.7782 10.3139 20.9626 9.94604 20.0975 9.78282C19.2323 9.6196 18.3416 9.66557 17.497 9.91703C17.8551 10.4118 18.0487 11.0102 18.0498 11.625C18.041 11.8296 18.0103 12.0327 17.9584 12.2305L13.5878 8.78603C15.106 7.49228 17.0213 6.78283 18.9998 6.78134C20.1228 6.7807 21.2349 7.00578 22.2725 7.44371C23.3101 7.88164 24.2529 8.52383 25.047 9.33356C25.841 10.1433 26.4708 11.1047 26.9002 12.1628C27.3297 13.2208 27.5504 14.3549 27.5498 15.5C27.5498 16.8096 27.2357 18.0302 26.7245 19.1394V19.1388Z" fill="#E5E5E5"/>
</svg>